<svg xmlns="http://www.w3.org/2000/svg" xmlns:xlink="http://www.w3.org/1999/xlink" width="500" zoomAndPan="magnify" viewBox="0 0 375 374.999991" height="500" preserveAspectRatio="xMidYMid meet" version="1.0"><defs><clipPath id="id1"><path d="M 12.496094 174 L 361.0625 174 L 361.0625 374.949219 L 12.496094 374.949219 Z M 12.496094 174 " clip-rule="nonzero"/></clipPath><clipPath id="id2"><path d="M 12.421875 245 L 360 245 L 360 307 L 12.421875 307 Z M 12.421875 245 " clip-rule="nonzero"/></clipPath></defs><path fill="#382a40" d="M 201.113281 104.933594 C 201.113281 88.101562 201.113281 71.269531 201.113281 54.4375 C 201.113281 44.054688 189.707031 42.4375 181.644531 43.941406 C 175.394531 45.105469 172.691406 49.898438 172.691406 55.851562 C 172.691406 66.289062 172.691406 76.722656 172.691406 87.160156 C 172.691406 93.082031 172.691406 99.011719 172.691406 104.933594 C 172.691406 108.039062 175.28125 110.628906 178.390625 110.628906 C 184.0625 110.628906 189.742188 110.628906 195.417969 110.628906 C 202.765625 110.628906 202.765625 99.238281 195.417969 99.238281 C 189.742188 99.238281 184.0625 99.238281 178.390625 99.238281 C 180.289062 101.136719 182.1875 103.035156 184.085938 104.933594 C 184.085938 88.101562 184.085938 71.269531 184.085938 54.4375 C 184.085938 53.972656 183.601562 55.085938 183.09375 55.285156 C 183.753906 55.023438 184.242188 55.007812 184.949219 54.957031 C 186.5625 54.84375 188.363281 54.78125 189.953125 55.074219 C 191.488281 55.363281 190.035156 55.066406 189.699219 54.183594 C 189.722656 54.25 189.722656 54.398438 189.722656 54.496094 C 189.722656 54.863281 189.722656 55.226562 189.722656 55.589844 C 189.722656 59.722656 189.722656 63.851562 189.722656 67.980469 C 189.722656 79.144531 189.722656 90.308594 189.722656 101.46875 C 189.722656 102.625 189.722656 103.78125 189.722656 104.933594 C 189.722656 112.277344 201.113281 112.277344 201.113281 104.933594 " fill-opacity="1" fill-rule="nonzero"/><path fill="#382a40" d="M 182.726562 5.527344 C 178.3125 10.492188 174.558594 16.210938 172.28125 22.464844 C 170.679688 26.878906 170.71875 31.574219 172.773438 35.800781 C 175.132812 40.652344 182.523438 44.136719 187.730469 43.445312 C 193.066406 42.742188 198.398438 40.765625 201.140625 35.8125 C 203.367188 31.789062 202.914062 26.878906 201.476562 22.683594 C 199.308594 16.355469 195.214844 10.492188 190.785156 5.527344 C 185.882812 0.0390625 177.851562 8.121094 182.726562 13.582031 C 185.144531 16.289062 186.980469 18.839844 189.230469 22.992188 C 189.996094 24.410156 190.277344 25.089844 190.691406 26.300781 C 191.351562 28.234375 191.339844 28.195312 191.292969 29.910156 C 191.328125 28.734375 191.191406 30.21875 191.121094 30.464844 C 191.261719 29.980469 191.265625 30.289062 190.9375 30.640625 C 190.328125 31.304688 188.679688 31.773438 187.128906 32.105469 C 186.496094 32.242188 184.484375 31.550781 183.410156 30.933594 C 182.507812 30.414062 182.765625 30.46875 182.589844 29.910156 C 182.492188 29.589844 182.492188 28.425781 182.597656 27.882812 C 182.878906 26.40625 183.519531 24.773438 183.945312 23.871094 C 185.242188 21.109375 186.957031 18.53125 188.757812 16.078125 C 188.871094 15.917969 189.898438 14.589844 189.015625 15.722656 C 189.316406 15.335938 189.628906 14.953125 189.941406 14.574219 C 190.214844 14.238281 190.496094 13.90625 190.785156 13.582031 C 195.648438 8.113281 187.621094 0.0273438 182.726562 5.527344 " fill-opacity="1" fill-rule="nonzero"/><path fill="#382a40" d="M 257.113281 104.933594 C 257.113281 88.101562 257.113281 71.269531 257.113281 54.4375 C 257.113281 44.054688 245.707031 42.4375 237.640625 43.941406 C 231.390625 45.105469 228.6875 49.898438 228.6875 55.851562 C 228.6875 66.289062 228.6875 76.722656 228.6875 87.160156 C 228.6875 93.082031 228.6875 99.011719 228.6875 104.933594 C 228.6875 108.039062 231.28125 110.628906 234.386719 110.628906 C 240.0625 110.628906 245.738281 110.628906 251.414062 110.628906 C 258.761719 110.628906 258.761719 99.238281 251.414062 99.238281 C 245.738281 99.238281 240.0625 99.238281 234.386719 99.238281 C 236.285156 101.136719 238.183594 103.035156 240.082031 104.933594 C 240.082031 88.101562 240.082031 71.269531 240.082031 54.4375 C 240.082031 53.972656 239.597656 55.085938 239.089844 55.285156 C 239.753906 55.023438 240.238281 55.007812 240.949219 54.957031 C 242.558594 54.84375 244.363281 54.78125 245.953125 55.074219 C 247.484375 55.363281 246.03125 55.066406 245.695312 54.183594 C 245.722656 54.25 245.71875 54.398438 245.71875 54.496094 C 245.71875 54.863281 245.71875 55.226562 245.71875 55.589844 C 245.71875 59.722656 245.71875 63.851562 245.71875 67.980469 C 245.71875 79.144531 245.71875 90.308594 245.71875 101.46875 C 245.71875 102.625 245.71875 103.78125 245.71875 104.933594 C 245.71875 112.277344 257.113281 112.277344 257.113281 104.933594 " fill-opacity="1" fill-rule="nonzero"/><path fill="#382a40" d="M 238.722656 5.527344 C 234.308594 10.492188 230.554688 16.210938 228.28125 22.464844 C 226.679688 26.878906 226.71875 31.574219 228.773438 35.800781 C 231.128906 40.652344 238.523438 44.136719 243.726562 43.445312 C 249.0625 42.742188 254.394531 40.765625 257.136719 35.8125 C 259.367188 31.789062 258.910156 26.878906 257.472656 22.683594 C 255.308594 16.355469 251.214844 10.492188 246.78125 5.527344 C 241.882812 0.0390625 233.847656 8.121094 238.722656 13.582031 C 241.144531 16.289062 242.980469 18.839844 245.226562 22.992188 C 245.992188 24.410156 246.277344 25.089844 246.6875 26.300781 C 247.351562 28.234375 247.335938 28.195312 247.292969 29.910156 C 247.324219 28.734375 247.191406 30.21875 247.121094 30.464844 C 247.261719 29.980469 247.261719 30.289062 246.9375 30.640625 C 246.328125 31.304688 244.679688 31.773438 243.128906 32.105469 C 242.492188 32.242188 240.480469 31.550781 239.40625 30.933594 C 238.503906 30.414062 238.765625 30.46875 238.589844 29.910156 C 238.488281 29.589844 238.488281 28.425781 238.59375 27.882812 C 238.875 26.40625 239.519531 24.773438 239.945312 23.871094 C 241.242188 21.109375 242.957031 18.53125 244.757812 16.078125 C 244.871094 15.917969 245.898438 14.589844 245.015625 15.722656 C 245.316406 15.335938 245.625 14.953125 245.9375 14.574219 C 246.214844 14.238281 246.496094 13.90625 246.78125 13.582031 C 251.648438 8.113281 243.621094 0.0273438 238.722656 5.527344 " fill-opacity="1" fill-rule="nonzero"/><path fill="#382a40" d="M 143.511719 104.933594 C 143.511719 88.101562 143.511719 71.269531 143.511719 54.4375 C 143.511719 44.054688 132.109375 42.4375 124.046875 43.941406 C 117.789062 45.105469 115.089844 49.898438 115.089844 55.851562 C 115.089844 66.289062 115.089844 76.722656 115.089844 87.160156 C 115.089844 93.082031 115.089844 99.011719 115.089844 104.933594 C 115.089844 108.039062 117.683594 110.628906 120.789062 110.628906 C 126.464844 110.628906 132.140625 110.628906 137.816406 110.628906 C 145.167969 110.628906 145.167969 99.238281 137.816406 99.238281 C 132.140625 99.238281 126.464844 99.238281 120.789062 99.238281 C 122.6875 101.136719 124.585938 103.035156 126.484375 104.933594 C 126.484375 88.101562 126.484375 71.269531 126.484375 54.4375 C 126.484375 53.972656 126 55.085938 125.492188 55.285156 C 126.15625 55.023438 126.640625 55.007812 127.351562 54.957031 C 128.960938 54.84375 130.765625 54.78125 132.355469 55.074219 C 133.886719 55.363281 132.4375 55.066406 132.097656 54.183594 C 132.125 54.25 132.121094 54.398438 132.121094 54.496094 C 132.121094 54.863281 132.121094 55.226562 132.121094 55.589844 C 132.121094 59.722656 132.121094 63.851562 132.121094 67.980469 C 132.121094 79.144531 132.121094 90.308594 132.121094 101.46875 C 132.121094 102.625 132.121094 103.78125 132.121094 104.933594 C 132.121094 112.277344 143.511719 112.277344 143.511719 104.933594 " fill-opacity="1" fill-rule="nonzero"/><path fill="#382a40" d="M 125.128906 5.527344 C 120.710938 10.492188 116.960938 16.210938 114.683594 22.464844 C 113.082031 26.878906 113.121094 31.574219 115.175781 35.800781 C 117.53125 40.652344 124.925781 44.136719 130.132812 43.445312 C 135.464844 42.742188 140.796875 40.765625 143.539062 35.8125 C 145.769531 31.789062 145.3125 26.878906 143.875 22.683594 C 141.710938 16.355469 137.617188 10.492188 133.183594 5.527344 C 128.28125 0.0390625 120.25 8.121094 125.128906 13.582031 C 127.546875 16.289062 129.378906 18.839844 131.628906 22.992188 C 132.398438 24.410156 132.675781 25.089844 133.089844 26.300781 C 133.75 28.234375 133.742188 28.195312 133.695312 29.910156 C 133.726562 28.734375 133.59375 30.21875 133.523438 30.464844 C 133.664062 29.980469 133.664062 30.289062 133.339844 30.640625 C 132.730469 31.304688 131.082031 31.773438 129.53125 32.105469 C 128.894531 32.242188 126.882812 31.550781 125.808594 30.933594 C 124.90625 30.414062 125.167969 30.46875 124.992188 29.910156 C 124.890625 29.589844 124.890625 28.425781 124.996094 27.882812 C 125.28125 26.40625 125.921875 24.773438 126.34375 23.871094 C 127.644531 21.109375 129.355469 18.53125 131.15625 16.078125 C 131.273438 15.917969 132.300781 14.589844 131.417969 15.722656 C 131.714844 15.335938 132.027344 14.953125 132.34375 14.574219 C 132.617188 14.238281 132.898438 13.90625 133.183594 13.582031 C 138.050781 8.113281 130.023438 0.0273438 125.128906 5.527344 " fill-opacity="1" fill-rule="nonzero"/><g clip-path="url(#id1)"><path fill="#382a40" d="M 54.261719 174.914062 C 38.242188 181.921875 19.996094 192.253906 14.050781 209.84375 C 11.964844 216.011719 12.738281 223.421875 12.738281 229.839844 C 12.738281 252.480469 12.738281 275.117188 12.738281 297.753906 C 12.738281 303.550781 12.273438 309.625 13.523438 315.328125 C 15.902344 326.144531 24.667969 334.421875 33.277344 340.644531 C 45.378906 349.398438 59.828125 355.007812 73.960938 359.511719 C 92.613281 365.453125 111.964844 368.984375 131.355469 371.441406 C 175.53125 377.035156 221.0625 375.964844 264.886719 368.035156 C 282.480469 364.847656 299.964844 360.320312 316.503906 353.453125 C 328.796875 348.34375 341.128906 341.933594 350.460938 332.230469 C 356.703125 325.75 361.0625 317.503906 361.0625 308.363281 C 361.0625 301.273438 361.0625 294.179688 361.0625 287.089844 C 361.0625 265.417969 361.0625 243.746094 361.0625 222.070312 C 361.0625 215.074219 360.066406 208.6875 356.40625 202.5 C 348.527344 189.179688 333.238281 180.902344 319.539062 174.914062 C 316.695312 173.667969 313.449219 174.046875 311.746094 176.957031 C 310.316406 179.398438 310.941406 183.503906 313.789062 184.75 C 322.957031 188.757812 332.058594 193.460938 339.582031 200.144531 C 344.378906 204.410156 349.027344 210.101562 349.617188 216.746094 C 350.125 222.535156 349.667969 228.535156 349.667969 234.332031 C 349.667969 256.746094 349.667969 279.15625 349.667969 301.566406 C 349.667969 303.867188 349.667969 306.167969 349.667969 308.46875 C 349.667969 311.261719 348.976562 314.144531 347.921875 316.359375 C 343.445312 325.75 333.558594 332.28125 324.089844 337.386719 C 309.703125 345.144531 293.761719 349.933594 277.925781 353.699219 C 257.648438 358.523438 236.910156 361.167969 216.128906 362.503906 C 173.164062 365.257812 128.933594 362.664062 87.222656 351.519531 C 72.246094 347.511719 57.375 342.261719 44.089844 334.164062 C 39.21875 331.195312 34.875 327.890625 30.96875 323.714844 C 28.136719 320.695312 25.800781 316.875 24.765625 313.296875 C 24.089844 310.96875 24.132812 310.019531 24.132812 307.195312 C 24.132812 304.046875 24.132812 300.902344 24.132812 297.753906 C 24.132812 286.476562 24.132812 275.195312 24.132812 263.917969 C 24.132812 252.558594 24.132812 241.199219 24.132812 229.839844 C 24.132812 223.730469 23.398438 217.171875 25.574219 211.359375 C 27.699219 205.679688 32.859375 201.105469 37.441406 197.433594 C 44.132812 192.058594 52.191406 188.167969 60.011719 184.75 C 62.859375 183.503906 63.484375 179.398438 62.054688 176.957031 C 60.351562 174.046875 57.105469 173.667969 54.261719 174.914062 " fill-opacity="1" fill-rule="nonzero"/></g><path fill="#382a40" d="M 173.921875 59.511719 C 167.371094 59.867188 160.851562 60.558594 154.328125 61.277344 C 151.242188 61.617188 148.632812 63.609375 148.632812 66.972656 C 148.632812 69.816406 151.238281 73.011719 154.328125 72.667969 C 160.851562 71.949219 167.371094 71.261719 173.921875 70.902344 C 181.230469 70.507812 181.269531 59.113281 173.921875 59.511719 " fill-opacity="1" fill-rule="nonzero"/><path fill="#382a40" d="M 217.058594 61.015625 C 209.851562 60.277344 202.65625 59.585938 195.417969 59.335938 C 188.066406 59.078125 188.089844 70.472656 195.417969 70.726562 C 202.65625 70.976562 209.851562 71.667969 217.058594 72.40625 C 220.152344 72.726562 222.753906 69.578125 222.753906 66.710938 C 222.753906 63.371094 220.148438 61.335938 217.058594 61.015625 " fill-opacity="1" fill-rule="nonzero"/><path fill="#382a40" d="M 102.503906 70.171875 C 85.691406 75.269531 66.210938 82.574219 55.976562 97.816406 C 51.261719 104.839844 51.828125 112.730469 51.828125 120.71875 C 51.828125 140.585938 51.828125 160.460938 51.828125 180.332031 C 51.828125 190.273438 58.015625 198.441406 65.570312 204.3125 C 77.851562 213.867188 93.042969 219.289062 107.910156 223.320312 C 149.800781 234.675781 195.417969 235.28125 238.15625 228.996094 C 256.253906 226.332031 274.214844 221.949219 290.96875 214.507812 C 301.804688 209.691406 313.765625 202.582031 319.277344 191.59375 C 322.523438 185.125 321.976562 178.234375 321.976562 171.238281 C 321.976562 159.585938 321.976562 147.933594 321.976562 136.277344 C 321.976562 129.9375 321.976562 123.597656 321.976562 117.257812 C 321.976562 113.59375 322.09375 110.023438 321.445312 106.398438 C 319.867188 97.570312 312.578125 90.773438 305.707031 85.734375 C 295.503906 78.25 283.011719 73.703125 271.003906 70.082031 C 263.949219 67.957031 260.960938 78.953125 267.972656 81.066406 C 277.660156 83.984375 287.105469 87.566406 295.789062 92.804688 C 301.015625 95.957031 307.136719 100.539062 309.484375 106.15625 C 311.753906 111.585938 310.582031 119.753906 310.582031 125.996094 C 310.582031 138.007812 310.582031 150.015625 310.582031 162.027344 C 310.582031 168.71875 311.019531 175.566406 310.515625 182.246094 C 310.597656 181.125 310.171875 183.738281 310.027344 184.25 C 309.882812 184.753906 309.695312 185.242188 309.511719 185.734375 C 309.929688 184.625 309.238281 186.242188 309.195312 186.332031 C 307.925781 188.859375 307.042969 189.867188 305.222656 191.792969 C 301.128906 196.121094 296.015625 199.222656 290.746094 201.996094 C 275.511719 210.03125 258.105469 214.09375 241.253906 217.027344 C 219.171875 220.871094 196.566406 221.871094 174.195312 221.132812 C 153.253906 220.445312 132.304688 217.890625 112.007812 212.621094 C 98.191406 209.03125 83.113281 204.101562 71.980469 194.941406 C 69.992188 193.304688 68.171875 191.46875 66.542969 189.472656 C 65.855469 188.636719 64.214844 185.558594 63.933594 184.746094 C 62.988281 182.023438 63.222656 181.484375 63.222656 178.429688 C 63.222656 157.75 63.222656 137.070312 63.222656 116.390625 C 63.222656 110.800781 63.0625 106.847656 66.769531 102.203125 C 75.90625 90.753906 92.058594 85.242188 105.535156 81.15625 C 112.546875 79.027344 109.554688 68.03125 102.503906 70.171875 " fill-opacity="1" fill-rule="nonzero"/><path fill="#382a40" d="M 152.957031 159.414062 C 191.773438 163.101562 232.457031 161.289062 270.074219 150.429688 C 282.992188 146.699219 296.273438 141.667969 307.078125 133.484375 C 314.988281 127.5 321.824219 119.378906 321.976562 108.996094 C 322.085938 101.644531 310.691406 101.65625 310.582031 108.996094 C 310.542969 111.78125 309.65625 114.273438 307.433594 117.492188 C 305.644531 120.09375 301.609375 123.5625 298.34375 125.792969 C 287.714844 133.046875 275.183594 137.277344 262.863281 140.613281 C 227.421875 150.222656 189.351562 151.484375 152.957031 148.023438 C 145.640625 147.328125 145.710938 158.722656 152.957031 159.414062 " fill-opacity="1" fill-rule="nonzero"/><path fill="#382a40" d="M 119.308594 154.332031 C 124.933594 155.515625 130.585938 156.515625 136.265625 157.363281 C 139.335938 157.824219 142.378906 156.648438 143.277344 153.386719 C 144.023438 150.671875 142.375 146.839844 139.296875 146.378906 C 133.613281 145.53125 127.960938 144.53125 122.339844 143.347656 C 115.171875 141.839844 112.121094 152.816406 119.308594 154.332031 " fill-opacity="1" fill-rule="nonzero"/><path fill="#382a40" d="M 51.828125 108.996094 C 52.285156 130.773438 78.480469 141.867188 95.722656 147.886719 C 102.675781 150.320312 105.640625 139.3125 98.75 136.90625 C 89.613281 133.714844 80.257812 129.796875 72.605469 123.734375 C 67.933594 120.039062 63.347656 114.929688 63.222656 108.996094 C 63.0625 101.660156 51.671875 101.644531 51.828125 108.996094 " fill-opacity="1" fill-rule="nonzero"/><g clip-path="url(#id2)"><path fill="#382a40" d="M 12.5 250.644531 C 12.441406 256.378906 14.1875 262.347656 16.855469 267.371094 C 22.617188 278.1875 34.417969 282.625 46.167969 282.1875 C 55.9375 281.824219 65.179688 278.136719 74.851562 277.023438 C 81.949219 276.203125 89.167969 276.316406 96.054688 278.347656 C 103.339844 280.496094 107.132812 284.511719 113.027344 289.800781 C 121.636719 297.519531 130.714844 304.1875 142.472656 306.003906 C 151.457031 307.394531 160.4375 305.992188 168.871094 302.714844 C 174.121094 300.675781 178.890625 297.777344 183.921875 295.296875 C 188.886719 292.851562 194.203125 291.167969 199.597656 289.972656 C 207.234375 288.285156 215.347656 288.265625 223.023438 289.730469 C 225.832031 290.269531 228.59375 291.039062 231.308594 291.945312 C 232.382812 292.300781 233.445312 292.703125 234.5 293.117188 C 234.691406 293.191406 236.230469 293.839844 234.882812 293.265625 C 235.363281 293.472656 235.839844 293.683594 236.316406 293.898438 C 243.730469 297.25 250.804688 300.902344 258.890625 302.46875 C 268.769531 304.386719 278.550781 303.347656 287.699219 299.128906 C 293.234375 296.574219 298.101562 292.441406 302.171875 287.964844 C 306.824219 282.839844 310.421875 277.089844 316.085938 272.910156 C 322.960938 267.835938 332.003906 265.523438 339.769531 266.726562 C 342.746094 267.1875 345.65625 268.039062 348.445312 269.148438 C 346.925781 268.546875 349.246094 269.53125 349.695312 269.757812 C 350.007812 269.914062 350.320312 270.078125 350.621094 270.257812 C 356.953125 274.011719 362.683594 264.164062 356.371094 260.421875 C 349.320312 256.242188 340.25 254.589844 332.175781 255.148438 C 324.285156 255.699219 316.789062 258.546875 310.332031 263.074219 C 301.84375 269.027344 296.933594 278.027344 289.214844 284.703125 C 278.816406 293.703125 264.863281 293.339844 252.644531 288.898438 C 250.496094 288.117188 249.957031 287.863281 247.621094 286.742188 C 246.425781 286.167969 245.265625 285.535156 244.066406 284.972656 C 240.691406 283.402344 237.269531 281.933594 233.742188 280.761719 C 217.753906 275.429688 200.171875 276.570312 184.585938 282.65625 C 174.429688 286.621094 165.753906 292.953125 154.824219 294.855469 C 148.324219 295.988281 141.277344 294.847656 135.328125 292.066406 C 127.992188 288.628906 122.796875 283.425781 116.785156 277.8125 C 108.609375 270.183594 98.820312 266.320312 87.710938 265.351562 C 75.660156 264.304688 64.191406 267.597656 52.535156 270.003906 C 44.953125 271.566406 37.058594 271.285156 31.035156 266.992188 C 28.109375 264.902344 25.902344 260.691406 24.8125 256.769531 C 24.542969 255.808594 24.335938 254.832031 24.160156 253.851562 C 23.808594 251.925781 24.203125 254.78125 24.003906 252.730469 C 23.9375 252.039062 23.886719 251.335938 23.894531 250.644531 C 23.964844 243.296875 12.570312 243.300781 12.5 250.644531 " fill-opacity="1" fill-rule="nonzero"/></g></svg>